<svg xmlns="http://www.w3.org/2000/svg" viewBox="0 0 320 200" shape-rendering="crispEdges">
  <rect width="320" height="200" fill="#d8ddff"/>
  <rect y="142" width="320" height="58" fill="#95b88a"/>
  <rect x="18" y="84" width="58" height="58" fill="#fff"/>
  <rect x="25" y="92" width="12" height="12" fill="#1b1b1b"/>
  <rect x="55" y="92" width="12" height="12" fill="#1b1b1b"/>
  <rect x="39" y="119" width="18" height="23" fill="#1b1b1b"/>
  <rect x="94" y="50" width="72" height="92" fill="#f3b346"/>
  <rect x="103" y="62" width="15" height="15" fill="#1b1b1b"/>
  <rect x="137" y="62" width="15" height="15" fill="#1b1b1b"/>
  <rect x="103" y="91" width="15" height="15" fill="#1b1b1b"/>
  <rect x="137" y="91" width="15" height="15" fill="#1b1b1b"/>
  <rect x="120" y="116" width="22" height="26" fill="#1b1b1b"/>
  <rect x="190" y="72" width="48" height="70" fill="#ef6a4d"/>
  <rect x="198" y="84" width="12" height="12" fill="#1b1b1b"/>
  <rect x="219" y="84" width="12" height="12" fill="#1b1b1b"/>
  <rect x="207" y="119" width="16" height="23" fill="#1b1b1b"/>
  <rect x="256" y="100" width="46" height="42" fill="#fff"/>
  <path d="M250 100h58l-29-26z" fill="#1b1b1b"/>
  <rect x="270" y="119" width="16" height="23" fill="#1b1b1b"/>
  <rect x="0" y="159" width="320" height="7" fill="#1b1b1b"/>
  <rect x="30" y="176" width="62" height="8" fill="#fff"/>
  <rect x="126" y="176" width="62" height="8" fill="#fff"/>
  <rect x="222" y="176" width="62" height="8" fill="#fff"/>
</svg>
